mtllib materials.mtl
v 1.09894 -1.314963 -1.074286
v 1.09894 -1.314963 1.035714
v 1.09894 0.9850364 1.035714
v 1.09894 0.9850364 -1.074286
v 1.01894 -1.314963 -1.074286
v 1.01894 0.9850364 -1.074286
v 1.01894 0.9850364 1.035714
v 1.01894 -1.314963 1.035714
v 1.09894 -1.234963 -1.074286
v 1.09894 -1.234964 1.035714
v -1.20106 -1.234964 1.035714
v -1.20106 -1.234964 -1.074286
v 1.09894 -1.314963 -1.074286
v -1.20106 -1.314964 -1.074286
v -1.20106 -1.314964 1.035714
v 1.09894 -1.314964 1.035714
v -1.201059 0.9850364 -1.074286
v -1.20106 0.9850359 1.035714
v -1.20106 -1.314964 1.035713
v -1.201059 -1.314963 -1.074286
v -1.121059 0.9850364 -1.074286
v -1.12106 -1.314963 -1.074286
v -1.12106 -1.314964 1.035713
v -1.12106 0.9850359 1.035714
v -1.201059 0.905036 -1.074286
v -1.20106 0.905036 1.035714
v 1.09894 0.905035 1.035714
v 1.098941 0.905035 -1.074286
v -1.201059 0.9850359 -1.074286
v 1.098941 0.9850349 -1.074286
v 1.09894 0.9850349 1.035714
v -1.20106 0.9850359 1.035714
v -1.20106 0.9850378 1.115714
v 1.09894 0.9850368 1.115714
v 1.098939 -1.314965 1.115714
v -1.20106 -1.314963 1.115714
v -1.20106 0.9850378 1.035714
v -1.20106 -1.314963 1.035714
v 1.09894 -1.314965 1.035714
v 1.09894 0.9850368 1.035714
v -0.49106 -1.314963 -1.074286
v 1.08894 -1.314963 -1.074286
v 1.088941 0.9850364 -1.074286
v -0.4910595 0.9850368 -1.074286
v -0.4910601 -1.314963 -0.9942861
v -0.4910595 0.9850368 -0.9942861
v 1.088941 0.9850364 -0.9942862
v 1.08894 -1.314963 -0.9942862
v -1.261059 0.9450364 -1.114286
v -1.261059 0.9450364 -1.024286
v -1.186344 0.9450364 -1.024286
v 1.138943 0.9450355 -1.024285
v 1.138942 0.945035 -1.114285
v -1.261059 1.025036 -1.114286
v 1.138942 1.025035 -1.114285
v 1.138943 1.025035 -1.024285
v -1.186666 1.025036 -1.024286
v -1.261059 1.025036 -1.024286
v -1.261061 1.025036 1.185714
v -1.261061 0.9450364 1.185714
v -1.186667 1.025036 1.093528
v -1.186667 1.025036 1.185714
v -1.186345 0.9450364 1.090692
v -1.186345 0.9450364 1.185714
v 1.173777 0.9545321 1.18572
v 1.173777 0.9545321 1.090698
v 1.07564 0.9541373 1.090697
v 1.173455 1.034532 1.18572
v 1.076094 1.03414 1.093533
v 1.173455 1.034532 1.093534
v 1.170704 0.9502339 1.012448
v 1.168074 1.030203 1.01494
v 1.070767 1.026984 1.015538
v 1.072621 0.9469895 1.013052
vn 1 0 0
vn -1 0 0
vn 0 -1 0
vn 0 1 0
vn 0 0 -1
vn 0 0 1
vn -1.192093E-07 1 1.748456E-07
vn 1.192093E-07 -1 -1.748456E-07
vn 1 1.192093E-07 0
vn -1 -1.192093E-07 0
vn 0 1.748456E-07 -1
vn 0 -1.748456E-07 1
vn -1 8.742278E-08 -1.748455E-07
vn 1 -8.742278E-08 1.748455E-07
vn 8.742275E-08 1 1.748456E-07
vn -8.742275E-08 -1 -1.748456E-07
vn 1.748456E-07 1.748456E-07 -1
vn -1.748456E-07 -1.748456E-07 1
vn -3.576278E-07 -1 -1.421085E-14
vn 3.576278E-07 1 1.421085E-14
vn -1 3.576278E-07 -1.748455E-07
vn 1 -3.576278E-07 1.748455E-07
vn 1.748456E-07 -1.421085E-14 -1
vn -1.748456E-07 1.421085E-14 1
vn -3.576279E-07 8.742281E-08 1
vn 3.576279E-07 -8.742281E-08 -1
vn 3.496911E-07 1 -8.742274E-08
vn -3.496911E-07 -1 8.742274E-08
vn -1 3.496911E-07 -5.960462E-08
vn 1 -3.496911E-07 5.960462E-08
vn -1.192093E-07 0 -1
vn 1.192093E-07 0 1
vn -1.748456E-07 -1 0
vn 1.748456E-07 1 0
vn -1 1.748456E-07 1.192093E-07
vn 1 -1.748456E-07 -1.192093E-07
vn -4.768371E-07 -1 -1.748456E-07
vn 4.768371E-07 1 1.748456E-07
vn -1 4.768372E-07 -3.49691E-07
vn 1 -4.768372E-07 3.49691E-07
vn 3.496911E-07 1.748455E-07 -1
vn -1 1.043044E-07 -2.790494E-06
vn -3.496911E-07 -1.748455E-07 1
vn -7.985352E-09 1 1.574826E-09
vn 0.9999919 0.004023272 2.775046E-06
vn -2.220601E-09 -1 2.756752E-09
vn -3.496911E-07 -1.748455E-07 1
vn 0.004025127 -0.9999919 2.104891E-08
vn -2.794965E-07 1.165971E-07 1
vn -0.004025117 0.9999919 1.326692E-08
vn -0.0001423203 0.03542707 -0.9993722
vn 0.9999919 0.004023272 2.775046E-06
vn 0.004016938 -0.9984953 0.05468933
vn 0.997619 0.006447444 -0.06866482
vn -0.004008811 0.9958339 -0.0910982
vn -0.9976905 0.00326247 0.06784572
vn -0.007171362 0.03089948 -0.9994968
vn 0.03348015 -0.9953493 0.09032697
vn -0.9988571 -0.02442883 0.04108077
vn 0.9985725 0.03412047 -0.04109497
vn -0.03334207 0.9980541 -0.05269262
vt -0.03127058 0.2435388
vt 0.1404272 0.1208976
vt 0.274112 0.3080563
vt 0.1024142 0.4306975
vt 0.03127058 0.2435388
vt -0.1024142 0.4306975
vt -0.274112 0.3080563
vt -0.1404272 0.1208976
vt -0.1599616 0.04863423
vt -0.1626523 0.0411003
vt 0.03605526 -0.02986667
vt 0.03874595 -0.02233274
vt 0.1599616 0.04863423
vt -0.03874595 -0.02233274
vt -0.03605526 -0.02986667
vt 0.1626523 0.0411003
vt -0.1645746 0.07334304
vt -0.3702929 0.1762022
vt -0.3738706 0.1690467
vt -0.1681523 0.06618762
vt 0.1645746 0.07334304
vt 0.1681523 0.06618762
vt 0.3738706 0.1690467
vt 0.3702929 0.1762022
vt 0.1599616 0.04863428
vt -0.0387459 -0.0223327
vt 0.03861147 -0.2389333
vt 0.237319 -0.1679663
vt -0.1599616 0.04863428
vt -0.237319 -0.1679663
vt -0.03861147 -0.2389333
vt 0.0387459 -0.0223327
vt -0.02662065 0.2500487
vt -0.03127056 0.2435388
vt 0.1404271 0.1208975
vt 0.145077 0.1274074
vt 0.02662065 0.2500487
vt -0.145077 0.1274074
vt -0.1404271 0.1208975
vt 0.03127056 0.2435388
vt -0.17173 0.07692073
vt -0.2745891 -0.1287975
vt -0.2674337 -0.1323753
vt -0.1645746 0.07334302
vt 0.17173 0.07692073
vt 0.1645746 0.07334302
vt 0.2674337 -0.1323752
vt 0.2745891 -0.1287975
vt -0.1024143 0.4306974
vt -0.2741119 0.3080561
vt -0.1404271 0.1208975
vt 0.03127057 0.2435388
vt 0.1024143 0.4306974
vt -0.03127057 0.2435388
vt 0.1404271 0.1208975
vt 0.2741119 0.3080561
vt 0.237319 -0.1679664
vt 0.2346283 -0.1604324
vt 0.03592085 -0.2313994
vt 0.03861154 -0.2389334
vt -0.237319 -0.1679663
vt -0.03861154 -0.2389334
vt -0.03592085 -0.2313994
vt -0.2346283 -0.1604324
vt -0.473152 -0.02951612
vt -0.2674337 -0.1323752
vt -0.263856 -0.1252198
vt -0.4695743 -0.02236069
vt 0.473152 -0.02951612
vt 0.4695743 -0.0223607
vt 0.263856 -0.1252198
vt 0.2674337 -0.1323753
vt -0.237319 -0.1679665
vt -0.03861151 -0.2389335
vt 0.03874592 -0.02233287
vt -0.1599616 0.04863416
vt 0.237319 -0.1679665
vt 0.1599616 0.04863416
vt -0.03874592 -0.02233288
vt 0.03861151 -0.2389335
vt -0.0977642 0.4241875
vt -0.1024141 0.4306974
vt -0.2741118 0.3080561
vt -0.2694619 0.3015463
vt 0.09776419 0.4241875
vt 0.2694619 0.3015463
vt 0.2741118 0.3080561
vt 0.1024141 0.4306974
vt -0.4659965 -0.03309381
vt -0.3631373 0.1726244
vt -0.3702927 0.1762021
vt -0.4731519 -0.02951608
vt 0.4659965 -0.0330938
vt 0.4731519 -0.02951609
vt 0.3702927 0.1762021
vt 0.3631373 0.1726244
vt 0.4731521 -0.02951598
vt 0.3702929 0.1762022
vt 0.1645745 0.07334291
vt 0.2674338 -0.1323752
vt -0.4731521 -0.02951598
vt -0.2674338 -0.1323752
vt -0.1645745 0.07334293
vt -0.3702929 0.1762022
vt 0.03107751 -0.2416242
vt 0.03861145 -0.2389335
vt -0.03874593 -0.02233287
vt -0.04627987 -0.02502357
vt -0.03107751 -0.2416242
vt 0.04627987 -0.02502357
vt 0.03874593 -0.02233287
vt -0.03861145 -0.2389335
vt -0.2806218 0.3034064
vt -0.146937 0.1162477
vt -0.1404271 0.1208976
vt -0.2741119 0.3080564
vt 0.2806218 0.3034064
vt 0.2741119 0.3080564
vt 0.140427 0.1208974
vt 0.1469369 0.1162475
vt -0.2356816 -0.06887089
vt -0.1650218 0.07244863
vt -0.3707401 0.1753078
vt -0.4413999 0.03398828
vt 0.2356816 -0.0688709
vt 0.4413999 0.03398828
vt 0.3707401 0.1753078
vt 0.1650218 0.07244863
vt -0.2134391 -0.1011028
vt -0.2059052 -0.1037935
vt -0.152764 0.04500179
vt -0.1602979 0.04769248
vt 0.2134391 -0.1011028
vt 0.1602979 0.04769248
vt 0.152764 0.04500179
vt 0.2059052 -0.1037935
vt 0.03127069 0.2435388
vt -0.102414 0.4306976
vt -0.1089239 0.4260477
vt 0.02476083 0.2388889
vt -0.03127069 0.2435388
vt -0.02476082 0.2388889
vt 0.1089239 0.4260477
vt 0.102414 0.4306975
vt -0.2431041 -0.1722716
vt -0.2346284 -0.1752986
vt -0.2321154 -0.1682623
vt -0.1539075 0.0507196
vt -0.1623832 0.05374657
vt 0.2431041 -0.1722716
vt 0.1623832 0.05374657
vt 0.1539075 0.0507196
vt 0.2321263 -0.1682927
vt 0.2346284 -0.1752986
vt -0.09683432 0.4297674
vt -0.1014842 0.4362772
vt -0.1088078 0.4310461
vt -0.1041579 0.4245362
vt 0.09683429 0.4297673
vt 0.1041579 0.4245362
vt 0.1088078 0.4310461
vt 0.1014842 0.4362772
vt -0.4722575 -0.03667155
vt -0.3649261 0.177991
vt -0.3720815 0.1815688
vt -0.4794129 -0.03309384
vt -0.10416 0.4245356
vt -0.1088099 0.4310454
vt -0.2886445 0.3025911
vt -0.2839946 0.2960813
vt 0.476086 -0.02643986
vt 0.3720815 0.1815688
vt 0.3649261 0.1779911
vt 0.4689161 -0.02998878
vt 0.2346283 -0.1752985
vt 0.2321261 -0.1682925
vt 0.0326828 -0.2395225
vt 0.02400122 -0.242623
vt 0.02650336 -0.249629
vt 0.1110142 0.4313952
vt 0.1063394 0.4249032
vt 0.2779696 0.3013137
vt 0.2828746 0.30764
vt -0.2321153 -0.1682622
vt -0.2346283 -0.1752985
vt -0.02650336 -0.249629
vt -0.0239904 -0.2425927
vt -0.03293905 -0.2393968
vt 0.4722576 -0.0366716
vt 0.479413 -0.0330939
vt 0.4760861 -0.02643992
vt 0.4689162 -0.02998884
vt -0.032238 -0.2378764
vt -0.02328733 -0.2410667
vt 0.05595253 -0.01875219
vt 0.04700184 -0.01556194
vt 0.04370693 -0.0248061
vt 0.4689162 -0.02998883
vt 0.4760861 -0.02643991
vt 0.3713874 0.1850805
vt 0.3642176 0.1815316
vt 0.02328734 -0.2410667
vt 0.03197088 -0.2379716
vt -0.04400012 -0.02482818
vt -0.04726896 -0.01565714
vt -0.0559525 -0.0187522
vt -0.4771379 -0.03075855
vt -0.4699269 -0.03423456
vt -0.3717048 0.1695276
vt -0.3788821 0.1730736
vt 0.2779696 0.3013137
vt 0.2856806 0.2957611
vt 0.2903555 0.3022531
vt 0.2828746 0.30764
vt 0.06537771 -0.03064871
vt 0.06844328 -0.02132599
vt 0.06090224 -0.01917165
vt 0.2475924 0.3267333
vt 0.2518641 0.3335033
vt 0.2448403 0.3370969
vt -0.08379333 -0.02478921
vt -0.08091167 -0.03408918
vt -0.07327197 -0.0322827
vt -0.2487775 0.3355885
vt -0.2445512 0.3287895
vt -0.241639 0.3388549
vt -0.3708633 0.1687122
vt -0.3668555 0.1776703
vt -0.3741626 0.1809395
vt -0.3781387 0.1720522
vt 0.07851459 -0.01078664
vt 0.07567893 -0.02018183
vt 0.08322478 -0.02216938
vt -0.2661672 0.3119003
vt -0.2592999 0.3156059
vt -0.2639296 0.3221368
vt 0.267344 0.3193453
vt 0.2626531 0.3128586
vt 0.2693739 0.3088163
vt -0.06153943 -0.01693603
vt -0.06450678 -0.007663058
vt -0.07215934 -0.009582862
o group1395256499
g mesh1395256499
usemtl mat21
f 4/4/1 3/3/1 2/2/1 1/1/1
f 8/8/2 7/7/2 6/6/2 5/5/2
f 2/12/3 8/11/3 5/10/3 1/9/3
f 6/16/4 7/15/4 3/14/4 4/13/4
f 5/20/5 6/19/5 4/18/5 1/17/5
f 3/24/6 7/23/6 8/22/6 2/21/6
o group1697682487
g mesh1697682487
usemtl mat21
f 12/28/7 11/27/7 10/26/7 9/25/7
f 16/32/8 15/31/8 14/30/8 13/29/8
f 10/36/9 16/35/9 13/34/9 9/33/9
f 14/40/10 15/39/10 11/38/10 12/37/10
f 13/44/11 14/43/11 12/42/11 9/41/11
f 11/48/12 15/47/12 16/46/12 10/45/12
o group878031503
g mesh878031503
usemtl mat21
f 20/52/13 19/51/13 18/50/13 17/49/13
f 24/56/14 23/55/14 22/54/14 21/53/14
f 18/60/15 24/59/15 21/58/15 17/57/15
f 22/64/16 23/63/16 19/62/16 20/61/16
f 21/68/17 22/67/17 20/66/17 17/65/17
f 19/72/18 23/71/18 24/70/18 18/69/18
o group153023857
g mesh153023857
usemtl mat21
f 28/76/19 27/75/19 26/74/19 25/73/19
f 32/80/20 31/79/20 30/78/20 29/77/20
f 26/84/21 32/83/21 29/82/21 25/81/21
f 30/88/22 31/87/22 27/86/22 28/85/22
f 29/92/23 30/91/23 28/90/23 25/89/23
f 27/96/24 31/95/24 32/94/24 26/93/24
o group987044984
g mesh987044984
usemtl mat21
f 36/100/25 35/99/25 34/98/25 33/97/25
f 40/104/26 39/103/26 38/102/26 37/101/26
f 34/108/27 40/107/27 37/106/27 33/105/27
f 38/112/28 39/111/28 35/110/28 36/109/28
f 37/116/29 38/115/29 36/114/29 33/113/29
f 35/120/30 39/119/30 40/118/30 34/117/30
o group1553863259
g mesh1553863259
usemtl mat21
f 44/124/31 43/123/31 42/122/31 41/121/31
f 48/128/32 47/127/32 46/126/32 45/125/32
f 42/132/33 48/131/33 45/130/33 41/129/33
f 46/136/34 47/135/34 43/134/34 44/133/34
f 45/140/35 46/139/35 44/138/35 41/137/35
f 43/144/36 47/143/36 48/142/36 42/141/36
o group764552914
g mesh764552914
usemtl mat17
f 53/149/37 52/148/37 51/147/37 50/146/37 49/145/37
f 58/154/38 57/153/38 56/152/38 55/151/38 54/150/38
f 50/158/39 58/157/39 54/156/39 49/155/39
f 55/162/40 56/161/40 52/160/40 53/159/40
f 54/166/41 55/165/41 53/164/41 49/163/41
f 60/170/42 59/169/42 58/168/42 50/167/42
f 51/174/43 52/173/43 56/172/43 57/171/43
f 59/179/44 62/178/44 61/177/44 57/176/44 58/175/44
f 61/183/45 63/182/45 51/181/45 57/180/45
f 63/188/46 64/187/46 60/186/46 50/185/46 51/184/46
f 64/192/47 62/191/47 59/190/47 60/189/47
f 67/197/48 66/196/48 65/195/48 64/194/48 63/193/48
f 65/201/49 68/200/49 62/199/49 64/198/49
f 68/206/50 70/205/50 69/204/50 61/203/50 62/202/50
f 69/210/51 67/209/51 63/208/51 61/207/51
f 70/214/52 68/213/52 65/212/52 66/211/52
f 71/217/53 66/216/53 67/215/53
f 72/220/54 70/219/54 66/218/54
f 73/223/55 69/222/55 70/221/55
f 73/226/56 67/225/56 69/224/56
f 73/230/57 72/229/57 71/228/57 74/227/57
f 67/233/58 74/232/58 71/231/58
f 73/236/59 74/235/59 67/234/59
f 66/239/60 71/238/60 72/237/60
f 70/242/61 72/241/61 73/240/61
